<svg xmlns="http://www.w3.org/2000/svg" width="1024" height="1024" viewBox="0 0 1024 1024" shape-rendering="crispEdges">
<defs><clipPath id="t"><rect x="100" y="100" width="824" height="824" rx="185"/></clipPath>
<pattern id="dither" width="16" height="16" patternUnits="userSpaceOnUse"><rect width="8" height="8" fill="#000"/><rect x="8" y="8" width="8" height="8" fill="#000"/></pattern></defs>
<g clip-path="url(#t)"><rect x="100" y="100" width="824" height="824" fill="#fff"/>
<rect x="100" y="712" width="824" height="212" fill="url(#dither)"/>
<rect x="100" y="712" width="824" height="12" fill="#000"/>
<rect x="410" y="202" width="34" height="34" fill="#000"/>
<rect x="444" y="202" width="34" height="34" fill="#000"/>
<rect x="478" y="202" width="34" height="34" fill="#000"/>
<rect x="512" y="202" width="34" height="34" fill="#000"/>
<rect x="546" y="202" width="34" height="34" fill="#000"/>
<rect x="580" y="202" width="34" height="34" fill="#000"/>
<rect x="342" y="236" width="34" height="34" fill="#000"/>
<rect x="376" y="236" width="34" height="34" fill="#000"/>
<rect x="410" y="236" width="34" height="34" fill="#fff"/>
<rect x="444" y="236" width="34" height="34" fill="#fff"/>
<rect x="478" y="236" width="34" height="34" fill="#fff"/>
<rect x="512" y="236" width="34" height="34" fill="#fff"/>
<rect x="546" y="236" width="34" height="34" fill="#fff"/>
<rect x="580" y="236" width="34" height="34" fill="#fff"/>
<rect x="614" y="236" width="34" height="34" fill="#000"/>
<rect x="648" y="236" width="34" height="34" fill="#000"/>
<rect x="308" y="270" width="34" height="34" fill="#000"/>
<rect x="342" y="270" width="34" height="34" fill="#fff"/>
<rect x="376" y="270" width="34" height="34" fill="#fff"/>
<rect x="410" y="270" width="34" height="34" fill="#fff"/>
<rect x="444" y="270" width="34" height="34" fill="#fff"/>
<rect x="478" y="270" width="34" height="34" fill="#fff"/>
<rect x="512" y="270" width="34" height="34" fill="#fff"/>
<rect x="546" y="270" width="34" height="34" fill="#fff"/>
<rect x="580" y="270" width="34" height="34" fill="#fff"/>
<rect x="614" y="270" width="34" height="34" fill="#fff"/>
<rect x="648" y="270" width="34" height="34" fill="#fff"/>
<rect x="682" y="270" width="34" height="34" fill="#000"/>
<rect x="274" y="304" width="34" height="34" fill="#000"/>
<rect x="308" y="304" width="34" height="34" fill="#fff"/>
<rect x="342" y="304" width="34" height="34" fill="#fff"/>
<rect x="376" y="304" width="34" height="34" fill="#fff"/>
<rect x="410" y="304" width="34" height="34" fill="#fff"/>
<rect x="444" y="304" width="34" height="34" fill="#fff"/>
<rect x="478" y="304" width="34" height="34" fill="#fff"/>
<rect x="512" y="304" width="34" height="34" fill="#fff"/>
<rect x="546" y="304" width="34" height="34" fill="#fff"/>
<rect x="580" y="304" width="34" height="34" fill="#fff"/>
<rect x="614" y="304" width="34" height="34" fill="#fff"/>
<rect x="648" y="304" width="34" height="34" fill="#fff"/>
<rect x="682" y="304" width="34" height="34" fill="#fff"/>
<rect x="716" y="304" width="34" height="34" fill="#000"/>
<rect x="274" y="338" width="34" height="34" fill="#000"/>
<rect x="308" y="338" width="34" height="34" fill="#fff"/>
<rect x="342" y="338" width="34" height="34" fill="#fff"/>
<rect x="376" y="338" width="34" height="34" fill="#fff"/>
<rect x="410" y="338" width="34" height="34" fill="#fff"/>
<rect x="444" y="338" width="34" height="34" fill="#fff"/>
<rect x="478" y="338" width="34" height="34" fill="#fff"/>
<rect x="512" y="338" width="34" height="34" fill="#fff"/>
<rect x="546" y="338" width="34" height="34" fill="#fff"/>
<rect x="580" y="338" width="34" height="34" fill="#fff"/>
<rect x="614" y="338" width="34" height="34" fill="#fff"/>
<rect x="648" y="338" width="34" height="34" fill="#fff"/>
<rect x="682" y="338" width="34" height="34" fill="#fff"/>
<rect x="716" y="338" width="34" height="34" fill="#000"/>
<rect x="240" y="372" width="34" height="34" fill="#000"/>
<rect x="274" y="372" width="34" height="34" fill="#fff"/>
<rect x="308" y="372" width="34" height="34" fill="#fff"/>
<rect x="342" y="372" width="34" height="34" fill="#fff"/>
<rect x="376" y="372" width="34" height="34" fill="#fff"/>
<rect x="410" y="372" width="34" height="34" fill="#000"/>
<rect x="444" y="372" width="34" height="34" fill="#000"/>
<rect x="478" y="372" width="34" height="34" fill="#fff"/>
<rect x="512" y="372" width="34" height="34" fill="#fff"/>
<rect x="546" y="372" width="34" height="34" fill="#fff"/>
<rect x="580" y="372" width="34" height="34" fill="#000"/>
<rect x="614" y="372" width="34" height="34" fill="#000"/>
<rect x="648" y="372" width="34" height="34" fill="#fff"/>
<rect x="682" y="372" width="34" height="34" fill="#fff"/>
<rect x="716" y="372" width="34" height="34" fill="#fff"/>
<rect x="750" y="372" width="34" height="34" fill="#000"/>
<rect x="240" y="406" width="34" height="34" fill="#000"/>
<rect x="274" y="406" width="34" height="34" fill="#fff"/>
<rect x="308" y="406" width="34" height="34" fill="#fff"/>
<rect x="342" y="406" width="34" height="34" fill="#fff"/>
<rect x="376" y="406" width="34" height="34" fill="#fff"/>
<rect x="410" y="406" width="34" height="34" fill="#000"/>
<rect x="444" y="406" width="34" height="34" fill="#000"/>
<rect x="478" y="406" width="34" height="34" fill="#fff"/>
<rect x="512" y="406" width="34" height="34" fill="#fff"/>
<rect x="546" y="406" width="34" height="34" fill="#fff"/>
<rect x="580" y="406" width="34" height="34" fill="#000"/>
<rect x="614" y="406" width="34" height="34" fill="#000"/>
<rect x="648" y="406" width="34" height="34" fill="#fff"/>
<rect x="682" y="406" width="34" height="34" fill="#fff"/>
<rect x="716" y="406" width="34" height="34" fill="#fff"/>
<rect x="750" y="406" width="34" height="34" fill="#000"/>
<rect x="240" y="440" width="34" height="34" fill="#000"/>
<rect x="274" y="440" width="34" height="34" fill="#fff"/>
<rect x="308" y="440" width="34" height="34" fill="#fff"/>
<rect x="342" y="440" width="34" height="34" fill="#fff"/>
<rect x="376" y="440" width="34" height="34" fill="#fff"/>
<rect x="410" y="440" width="34" height="34" fill="#fff"/>
<rect x="444" y="440" width="34" height="34" fill="#fff"/>
<rect x="478" y="440" width="34" height="34" fill="#fff"/>
<rect x="512" y="440" width="34" height="34" fill="#fff"/>
<rect x="546" y="440" width="34" height="34" fill="#fff"/>
<rect x="580" y="440" width="34" height="34" fill="#fff"/>
<rect x="614" y="440" width="34" height="34" fill="#fff"/>
<rect x="648" y="440" width="34" height="34" fill="#fff"/>
<rect x="682" y="440" width="34" height="34" fill="#fff"/>
<rect x="716" y="440" width="34" height="34" fill="#fff"/>
<rect x="750" y="440" width="34" height="34" fill="#000"/>
<rect x="240" y="474" width="34" height="34" fill="#000"/>
<rect x="274" y="474" width="34" height="34" fill="#fff"/>
<rect x="308" y="474" width="34" height="34" fill="#fff"/>
<rect x="342" y="474" width="34" height="34" fill="#fff"/>
<rect x="376" y="474" width="34" height="34" fill="#fff"/>
<rect x="410" y="474" width="34" height="34" fill="#fff"/>
<rect x="444" y="474" width="34" height="34" fill="#fff"/>
<rect x="478" y="474" width="34" height="34" fill="#fff"/>
<rect x="512" y="474" width="34" height="34" fill="#fff"/>
<rect x="546" y="474" width="34" height="34" fill="#fff"/>
<rect x="580" y="474" width="34" height="34" fill="#fff"/>
<rect x="614" y="474" width="34" height="34" fill="#fff"/>
<rect x="648" y="474" width="34" height="34" fill="#fff"/>
<rect x="682" y="474" width="34" height="34" fill="#fff"/>
<rect x="716" y="474" width="34" height="34" fill="#fff"/>
<rect x="750" y="474" width="34" height="34" fill="#000"/>
<rect x="240" y="508" width="34" height="34" fill="#000"/>
<rect x="274" y="508" width="34" height="34" fill="#fff"/>
<rect x="308" y="508" width="34" height="34" fill="#fff"/>
<rect x="342" y="508" width="34" height="34" fill="#fff"/>
<rect x="376" y="508" width="34" height="34" fill="#fff"/>
<rect x="410" y="508" width="34" height="34" fill="#fff"/>
<rect x="444" y="508" width="34" height="34" fill="#fff"/>
<rect x="478" y="508" width="34" height="34" fill="#fff"/>
<rect x="512" y="508" width="34" height="34" fill="#fff"/>
<rect x="546" y="508" width="34" height="34" fill="#fff"/>
<rect x="580" y="508" width="34" height="34" fill="#fff"/>
<rect x="614" y="508" width="34" height="34" fill="#fff"/>
<rect x="648" y="508" width="34" height="34" fill="#fff"/>
<rect x="682" y="508" width="34" height="34" fill="#fff"/>
<rect x="716" y="508" width="34" height="34" fill="#fff"/>
<rect x="750" y="508" width="34" height="34" fill="#000"/>
<rect x="274" y="542" width="34" height="34" fill="#000"/>
<rect x="308" y="542" width="34" height="34" fill="#fff"/>
<rect x="342" y="542" width="34" height="34" fill="#fff"/>
<rect x="376" y="542" width="34" height="34" fill="#fff"/>
<rect x="410" y="542" width="34" height="34" fill="#fff"/>
<rect x="444" y="542" width="34" height="34" fill="#fff"/>
<rect x="478" y="542" width="34" height="34" fill="#fff"/>
<rect x="512" y="542" width="34" height="34" fill="#fff"/>
<rect x="546" y="542" width="34" height="34" fill="#fff"/>
<rect x="580" y="542" width="34" height="34" fill="#fff"/>
<rect x="614" y="542" width="34" height="34" fill="#fff"/>
<rect x="648" y="542" width="34" height="34" fill="#fff"/>
<rect x="682" y="542" width="34" height="34" fill="#fff"/>
<rect x="716" y="542" width="34" height="34" fill="#000"/>
<rect x="308" y="576" width="34" height="34" fill="#000"/>
<rect x="342" y="576" width="34" height="34" fill="#fff"/>
<rect x="376" y="576" width="34" height="34" fill="#fff"/>
<rect x="410" y="576" width="34" height="34" fill="#fff"/>
<rect x="444" y="576" width="34" height="34" fill="#fff"/>
<rect x="478" y="576" width="34" height="34" fill="#fff"/>
<rect x="512" y="576" width="34" height="34" fill="#fff"/>
<rect x="546" y="576" width="34" height="34" fill="#fff"/>
<rect x="580" y="576" width="34" height="34" fill="#fff"/>
<rect x="614" y="576" width="34" height="34" fill="#fff"/>
<rect x="648" y="576" width="34" height="34" fill="#fff"/>
<rect x="682" y="576" width="34" height="34" fill="#000"/>
<rect x="342" y="610" width="34" height="34" fill="#000"/>
<rect x="376" y="610" width="34" height="34" fill="#000"/>
<rect x="410" y="610" width="34" height="34" fill="#000"/>
<rect x="444" y="610" width="34" height="34" fill="#000"/>
<rect x="478" y="610" width="34" height="34" fill="#000"/>
<rect x="512" y="610" width="34" height="34" fill="#000"/>
<rect x="546" y="610" width="34" height="34" fill="#000"/>
<rect x="580" y="610" width="34" height="34" fill="#000"/>
<rect x="614" y="610" width="34" height="34" fill="#000"/>
<rect x="648" y="610" width="34" height="34" fill="#000"/>
<rect x="376" y="644" width="34" height="34" fill="#000"/>
<rect x="410" y="644" width="34" height="34" fill="#fff"/>
<rect x="444" y="644" width="34" height="34" fill="#000"/>
<rect x="546" y="644" width="34" height="34" fill="#000"/>
<rect x="580" y="644" width="34" height="34" fill="#fff"/>
<rect x="614" y="644" width="34" height="34" fill="#000"/>
<rect x="376" y="678" width="34" height="34" fill="#000"/>
<rect x="410" y="678" width="34" height="34" fill="#000"/>
<rect x="444" y="678" width="34" height="34" fill="#000"/>
<rect x="546" y="678" width="34" height="34" fill="#000"/>
<rect x="580" y="678" width="34" height="34" fill="#000"/>
<rect x="614" y="678" width="34" height="34" fill="#000"/>
</g><rect x="110" y="110" width="804" height="804" rx="175" fill="none" stroke="#000" stroke-width="20"/></svg>